# xmcd CD database file
#
# Track frame offsets:
#	150
#	17387
#	33790
#	51812
#	63054
#	78899
#	98526
#	114037
#	130898
#	152364
#	171534
#	199417
#
# Disc length: 3029 seconds
#
# Revision: 0
# Processed by: cddbd v1.5.1PL2 Copyright (c) Steve Scherf et al.
# Submitted via: CDex 1.51
#
DISCID=820bd30c
DTITLE=Jil Station - Still Love
DYEAR=2006
DGENRE=Salsa
TTITLE0=Murder 1
TTITLE1=Behaviour
TTITLE2=Vanguard
TTITLE3=Parlour
TTITLE4=Mania
TTITLE5=Private Eyes
TTITLE6=Still Love
TTITLE7=My Gun is Gorgeous
TTITLE8=Neon Night
TTITLE9=Afraid of Who
TTITLE10=Lights
TTITLE11=Data
EXTD=YEAR: 2006
EXTT0=
EXTT1=
EXTT2=
EXTT3=
EXTT4=
EXTT5=
EXTT6=
EXTT7=
EXTT8=
EXTT9=
EXTT10=
EXTT11=
PLAYORDER=
